<mxfile host="app.diagrams.net" modified="2023-04-01T09:31:09.993Z" agent="Mozilla/5.0 (Windows NT 10.0; Win64; x64) AppleWebKit/537.36 (KHTML, like Gecko) Chrome/111.0.0.0 Safari/537.36 Edg/111.0.1661.54" etag="PPutkRUDG3TDjk5k3ibi" version="21.1.2" type="github">
  <diagram name="Page-1" id="J_HzvNZ0PhXkDLe6oeXv">
    <mxGraphModel dx="950" dy="521" grid="1" gridSize="10" guides="1" tooltips="1" connect="1" arrows="1" fold="1" page="1" pageScale="1" pageWidth="827" pageHeight="1169" math="0" shadow="0">
      <root>
        <mxCell id="0" />
        <mxCell id="1" parent="0" />
        <mxCell id="FSWxIVSEIQViBpeSSdB3-7" value="" style="rounded=0;whiteSpace=wrap;html=1;dashed=1;dashPattern=1 4;container=1;verticalAlign=top;align=center;" vertex="1" parent="1">
          <mxGeometry x="240" y="30" width="480" height="130" as="geometry">
            <mxRectangle x="180" y="30" width="50" height="40" as="alternateBounds" />
          </mxGeometry>
        </mxCell>
        <mxCell id="FSWxIVSEIQViBpeSSdB3-8" value="Input" style="text;strokeColor=none;align=center;fillColor=none;html=1;verticalAlign=middle;whiteSpace=wrap;rounded=0;" vertex="1" parent="FSWxIVSEIQViBpeSSdB3-7">
          <mxGeometry x="391.11611111111114" width="90" height="22" as="geometry" />
        </mxCell>
        <mxCell id="FSWxIVSEIQViBpeSSdB3-15" style="edgeStyle=orthogonalEdgeStyle;rounded=0;orthogonalLoop=1;jettySize=auto;html=1;entryX=0.994;entryY=0.374;entryDx=0;entryDy=0;entryPerimeter=0;" edge="1" parent="FSWxIVSEIQViBpeSSdB3-7" source="FSWxIVSEIQViBpeSSdB3-10" target="FSWxIVSEIQViBpeSSdB3-11">
          <mxGeometry relative="1" as="geometry">
            <Array as="points">
              <mxPoint x="80" y="50" />
            </Array>
          </mxGeometry>
        </mxCell>
        <mxCell id="FSWxIVSEIQViBpeSSdB3-10" value="Load Survey&lt;br&gt;Data" style="shape=parallelogram;perimeter=parallelogramPerimeter;whiteSpace=wrap;html=1;fixedSize=1;aspect=fixed;verticalAlign=middle;" vertex="1" parent="FSWxIVSEIQViBpeSSdB3-7">
          <mxGeometry x="190.5" y="46.11" width="99" height="44" as="geometry" />
        </mxCell>
        <mxCell id="FSWxIVSEIQViBpeSSdB3-13" value="" style="group" vertex="1" connectable="0" parent="FSWxIVSEIQViBpeSSdB3-7">
          <mxGeometry x="35.55" y="38.33" width="64.45" height="59.55" as="geometry" />
        </mxCell>
        <mxCell id="FSWxIVSEIQViBpeSSdB3-11" value="" style="html=1;verticalLabelPosition=bottom;align=center;labelBackgroundColor=#ffffff;verticalAlign=top;strokeWidth=2;strokeColor=#000000;shadow=0;dashed=0;shape=mxgraph.ios7.icons.data;" vertex="1" parent="FSWxIVSEIQViBpeSSdB3-13">
          <mxGeometry x="19.335" width="25.779999999999998" height="29.099999999999998" as="geometry" />
        </mxCell>
        <mxCell id="FSWxIVSEIQViBpeSSdB3-12" value="Survey Database" style="text;strokeColor=none;align=center;fillColor=none;html=1;verticalAlign=middle;whiteSpace=wrap;rounded=0;" vertex="1" parent="FSWxIVSEIQViBpeSSdB3-13">
          <mxGeometry y="29.549999999999997" width="64.45" height="30" as="geometry" />
        </mxCell>
        <mxCell id="FSWxIVSEIQViBpeSSdB3-14" style="edgeStyle=orthogonalEdgeStyle;rounded=0;orthogonalLoop=1;jettySize=auto;html=1;entryX=0.139;entryY=0.34;entryDx=0;entryDy=0;entryPerimeter=0;" edge="1" parent="FSWxIVSEIQViBpeSSdB3-7" source="FSWxIVSEIQViBpeSSdB3-11" target="FSWxIVSEIQViBpeSSdB3-10">
          <mxGeometry relative="1" as="geometry">
            <Array as="points">
              <mxPoint x="110" y="61" />
              <mxPoint x="110" y="61" />
            </Array>
          </mxGeometry>
        </mxCell>
        <mxCell id="FSWxIVSEIQViBpeSSdB3-16" value="Survey Id" style="text;strokeColor=none;align=center;fillColor=none;html=1;verticalAlign=middle;whiteSpace=wrap;rounded=0;glass=0;shadow=0;labelBackgroundColor=none;labelBorderColor=none;fontSize=10;" vertex="1" parent="FSWxIVSEIQViBpeSSdB3-7">
          <mxGeometry x="115" y="16.11" width="50" height="30" as="geometry" />
        </mxCell>
        <mxCell id="FSWxIVSEIQViBpeSSdB3-17" value="Survey Record" style="text;strokeColor=none;align=center;fillColor=none;html=1;verticalAlign=middle;whiteSpace=wrap;rounded=0;fontSize=10;" vertex="1" parent="FSWxIVSEIQViBpeSSdB3-7">
          <mxGeometry x="110" y="60.11" width="60" height="30" as="geometry" />
        </mxCell>
        <mxCell id="FSWxIVSEIQViBpeSSdB3-18" value="" style="rounded=0;whiteSpace=wrap;html=1;dashed=1;dashPattern=1 4;container=1;" vertex="1" parent="1">
          <mxGeometry x="240" y="200" width="480" height="170" as="geometry">
            <mxRectangle x="180" y="220" width="50" height="40" as="alternateBounds" />
          </mxGeometry>
        </mxCell>
        <mxCell id="FSWxIVSEIQViBpeSSdB3-19" value="Pre-processing" style="text;strokeColor=none;align=center;fillColor=none;html=1;verticalAlign=middle;whiteSpace=wrap;rounded=0;" vertex="1" parent="FSWxIVSEIQViBpeSSdB3-18">
          <mxGeometry x="390" width="90" height="22" as="geometry" />
        </mxCell>
        <mxCell id="FSWxIVSEIQViBpeSSdB3-31" value="" style="edgeStyle=orthogonalEdgeStyle;rounded=0;orthogonalLoop=1;jettySize=auto;html=1;" edge="1" parent="FSWxIVSEIQViBpeSSdB3-18" source="FSWxIVSEIQViBpeSSdB3-20" target="FSWxIVSEIQViBpeSSdB3-25">
          <mxGeometry relative="1" as="geometry" />
        </mxCell>
        <mxCell id="FSWxIVSEIQViBpeSSdB3-20" value="Group Answer By Question" style="rounded=0;whiteSpace=wrap;html=1;" vertex="1" parent="FSWxIVSEIQViBpeSSdB3-18">
          <mxGeometry x="145.25" y="30" width="190" height="20" as="geometry" />
        </mxCell>
        <mxCell id="FSWxIVSEIQViBpeSSdB3-25" value="Average Calculation" style="rounded=0;whiteSpace=wrap;html=1;" vertex="1" parent="FSWxIVSEIQViBpeSSdB3-18">
          <mxGeometry x="145" y="100" width="190" height="20" as="geometry" />
        </mxCell>
        <mxCell id="FSWxIVSEIQViBpeSSdB3-32" value="&lt;font style=&quot;font-size: 10px;&quot;&gt;Answer Group&lt;/font&gt;" style="text;strokeColor=none;align=center;fillColor=none;html=1;verticalAlign=middle;whiteSpace=wrap;rounded=0;" vertex="1" parent="FSWxIVSEIQViBpeSSdB3-18">
          <mxGeometry x="230" y="60" width="60" height="30" as="geometry" />
        </mxCell>
        <mxCell id="FSWxIVSEIQViBpeSSdB3-22" style="edgeStyle=orthogonalEdgeStyle;rounded=0;orthogonalLoop=1;jettySize=auto;html=1;" edge="1" parent="1" source="FSWxIVSEIQViBpeSSdB3-10">
          <mxGeometry relative="1" as="geometry">
            <mxPoint x="480" y="230" as="targetPoint" />
            <Array as="points">
              <mxPoint x="480" y="230" />
            </Array>
          </mxGeometry>
        </mxCell>
        <mxCell id="FSWxIVSEIQViBpeSSdB3-24" value="Survey Record" style="text;strokeColor=none;align=center;fillColor=none;html=1;verticalAlign=middle;whiteSpace=wrap;rounded=0;fontSize=10;" vertex="1" parent="1">
          <mxGeometry x="470" y="170" width="60" height="20" as="geometry" />
        </mxCell>
      </root>
    </mxGraphModel>
  </diagram>
</mxfile>
